<?xml version="1.0" encoding="UTF-8" standalone="no"?>
<svg
   xmlns:dc="http://purl.org/dc/elements/1.1/"
   xmlns:cc="http://creativecommons.org/ns#"
   xmlns:rdf="http://www.w3.org/1999/02/22-rdf-syntax-ns#"
   xmlns:svg="http://www.w3.org/2000/svg"
   xmlns="http://www.w3.org/2000/svg"
   xmlns:sodipodi="http://sodipodi.sourceforge.net/DTD/sodipodi-0.dtd"
   xmlns:inkscape="http://www.inkscape.org/namespaces/inkscape"
   width="350"
   height="120"
   viewBox="0 0 92.604163 31.75"
   version="1.1"
   id="svg249"
   inkscape:version="1.0.1 (c497b03c, 2020-09-10)"
   sodipodi:docname="abcsubmit-widget.svg">
  <defs
     id="defs243" />
  <sodipodi:namedview
     id="base"
     pagecolor="#ffffff"
     bordercolor="#666666"
     borderopacity="1.0"
     inkscape:pageopacity="0.0"
     inkscape:pageshadow="2"
     inkscape:zoom="1.4"
     inkscape:cx="185.87055"
     inkscape:cy="-54.067858"
     inkscape:document-units="px"
     inkscape:current-layer="layer1"
     inkscape:document-rotation="0"
     showgrid="false"
     units="px"
     inkscape:window-width="1527"
     inkscape:window-height="978"
     inkscape:window-x="2052"
     inkscape:window-y="40"
     inkscape:window-maximized="0" />
  <metadata
     id="metadata246">
    <rdf:RDF>
      <cc:Work
         rdf:about="">
        <dc:format>image/svg+xml</dc:format>
        <dc:type
           rdf:resource="http://purl.org/dc/dcmitype/StillImage" />
        <dc:title></dc:title>
      </cc:Work>
    </rdf:RDF>
  </metadata>
  <g
     inkscape:label="Layer 1"
     inkscape:groupmode="layer"
     id="layer1">
    <path
       id="rect251"
       style="fill:#008ebd;stroke-width:1.45136;fill-opacity:1"
       d="M 0 0 L 0 120 L 350 120 L 350 0 L 0 0 z M 165.42773 33.236328 L 170.58398 33.236328 L 170.58398 51.402344 C 172.28859 50.318039 174.25793 49.738847 176.26953 49.732422 C 179.41842 49.733964 183.32154 52.393096 184.45703 53.560547 C 185.79443 54.864835 187.17805 56.190181 188.47266 57.501953 C 188.47266 57.501953 196.18702 64.234585 196.82617 64.818359 C 197.46536 65.401934 199.35066 66.384743 201.01562 66.384766 C 202.01703 66.382347 202.99906 66.108625 203.86133 65.591797 L 208.00195 69.005859 C 206.05271 70.691733 203.57643 71.618041 201.01562 71.619141 C 198.14615 71.616253 196.91535 71.181276 193.375 68.384766 L 186.80664 62.929688 C 185.7577 67.989239 181.36272 71.612715 176.26953 71.619141 C 172.15074 71.55171 168.61084 68.43955 165.1875 65.525391 L 165.19336 65.511719 L 156.85938 57.875 C 155.47781 56.472595 153.55225 54.969001 151.52344 54.964844 C 148.41719 54.964863 145.89848 57.520504 145.89844 60.673828 C 145.89848 63.827133 148.41719 66.384743 151.52344 66.384766 C 154.26326 66.381757 156.60083 64.374688 157.06055 61.632812 L 161.30469 65.214844 C 159.55692 69.10631 155.73646 71.605465 151.52344 71.617188 C 145.56978 71.617263 140.7423 66.717678 140.74219 60.673828 C 140.74213 54.629838 145.56967 49.730386 151.52344 49.730469 C 153.57137 49.732151 155.13178 50.326834 156.85938 51.443359 L 156.85938 49.810547 L 162.30273 49.810547 L 162.30273 56.089844 C 163.30519 56.95294 164.47416 58.005302 165.42773 58.742188 C 167.77421 60.78602 170.4875 63.182001 173.09766 65.390625 C 174.00059 66.017656 175.09296 66.384766 176.26953 66.384766 C 179.37577 66.384743 181.89257 63.827133 181.89258 60.673828 C 181.89257 57.520504 179.37578 54.964863 176.26953 54.964844 C 173.30756 54.964863 170.88121 56.897705 170.66211 59.847656 L 165.42773 55.521484 L 165.42773 33.236328 z M 201.01562 49.730469 C 203.35884 49.734195 205.63569 50.513573 207.50391 51.949219 L 203.4707 55.546875 C 202.70596 55.166908 201.86709 54.966941 201.01562 54.964844 C 198.05621 54.964863 195.63093 57.286152 195.4082 60.232422 L 191.01172 56.632812 C 192.60636 52.555435 196.51771 49.736894 201.01562 49.730469 z M 145.76172 74.564453 C 146.39785 74.564453 147.05228 74.61514 147.72461 74.714844 C 148.39693 74.809382 149.09167 74.95421 149.81055 75.148438 L 149.81055 77.636719 C 149.17442 77.347955 148.55431 77.12942 147.94922 76.982422 C 147.34412 76.835373 146.77224 76.761719 146.23438 76.761719 C 145.52062 76.761719 144.99368 76.861038 144.65234 77.060547 C 144.311 77.260056 144.13867 77.570226 144.13867 77.990234 C 144.13867 78.305245 144.25292 78.551974 144.48047 78.730469 C 144.71321 78.903722 145.1332 79.05366 145.73828 79.179688 L 147.00977 79.439453 C 148.29754 79.701972 149.21282 80.101195 149.75586 80.636719 C 150.2989 81.172227 150.57031 81.932893 150.57031 82.919922 C 150.57031 84.216708 150.18994 85.183104 149.42969 85.818359 C 148.6746 86.448389 147.51959 86.763672 145.96289 86.763672 C 145.2285 86.763672 144.49151 86.692589 143.75195 86.550781 C 143.01239 86.408973 142.27277 86.198125 141.5332 85.919922 L 141.5332 83.361328 C 142.27277 83.76034 142.98599 84.062803 143.67383 84.267578 C 144.36685 84.467062 145.03449 84.566406 145.67578 84.566406 C 146.32743 84.566406 146.82731 84.456826 147.17383 84.236328 C 147.52034 84.015805 147.69336 83.700502 147.69336 83.291016 C 147.69336 82.923497 147.57385 82.638952 147.33594 82.439453 C 147.10322 82.239919 146.63502 82.061777 145.93164 81.904297 L 144.77539 81.644531 C 143.61691 81.392502 142.76833 80.99069 142.23047 80.439453 C 141.69778 79.888191 141.43164 79.145466 141.43164 78.210938 C 141.43164 77.040148 141.80409 76.13979 142.54883 75.509766 C 143.29356 74.879751 144.36533 74.564453 145.76172 74.564453 z M 153.20117 74.777344 L 156.1875 74.777344 L 156.1875 81.826172 C 156.1875 82.797435 156.34204 83.492106 156.65234 83.912109 C 156.96783 84.326867 157.48093 84.535156 158.18945 84.535156 C 158.90316 84.535156 159.4143 84.326867 159.72461 83.912109 C 160.0401 83.492106 160.19727 82.797435 160.19727 81.826172 L 160.19727 74.777344 L 163.18555 74.777344 L 163.18555 81.826172 C 163.18555 83.490464 162.77348 84.729204 161.95117 85.542969 C 161.12886 86.356741 159.87546 86.763672 158.18945 86.763672 C 156.50863 86.763672 155.25591 86.356741 154.43359 85.542969 C 153.61128 84.729204 153.20117 83.490464 153.20117 81.826172 L 153.20117 74.777344 z M 166.10938 74.777344 L 170.59375 74.777344 C 172.20217 74.777344 173.3651 75.024073 174.08398 75.517578 C 174.80803 76.011086 175.16992 76.801881 175.16992 77.888672 C 175.16992 78.460958 175.03916 78.949272 174.77539 79.353516 C 174.51163 79.752538 174.12862 80.047925 173.62695 80.242188 C 174.26825 80.431189 174.76355 80.781765 175.11523 81.291016 C 175.46691 81.800289 175.64258 82.423809 175.64258 83.164062 C 175.64258 84.298114 175.2668 85.144679 174.51172 85.701172 C 173.75664 86.257705 172.6076 86.535156 171.06641 86.535156 L 166.10938 86.535156 L 166.10938 74.777344 z M 178.21094 74.777344 L 182.01172 74.777344 L 184.65039 81.070312 L 187.30273 74.777344 L 191.09766 74.777344 L 191.09766 86.535156 L 188.27344 86.535156 L 188.27344 77.935547 L 185.60352 84.275391 L 183.71094 84.275391 L 181.04297 77.935547 L 181.04297 86.535156 L 178.21094 86.535156 L 178.21094 74.777344 z M 194.03711 74.777344 L 197.02344 74.777344 L 197.02344 86.535156 L 194.03711 86.535156 L 194.03711 74.777344 z M 198.58203 74.777344 L 209.25781 74.777344 L 209.25781 77.068359 L 205.41797 77.068359 L 205.41797 86.535156 L 202.43164 86.535156 L 202.43164 77.068359 L 198.58203 77.068359 L 198.58203 74.777344 z M 169.0957 76.841797 L 169.0957 79.330078 L 170.74805 79.330078 C 171.21867 79.330078 171.57529 79.223662 171.81836 79.013672 C 172.06143 78.803681 172.18359 78.495464 172.18359 78.085938 C 172.18359 77.681663 172.06143 77.374049 171.81836 77.164062 C 171.57529 76.948781 171.21867 76.841797 170.74805 76.841797 L 169.0957 76.841797 z M 169.0957 81.392578 L 169.0957 84.472656 L 170.84961 84.472656 C 171.44954 84.472656 171.89926 84.34319 172.19922 84.085938 C 172.50435 83.828691 172.65625 83.439677 172.65625 82.919922 C 172.65625 82.410641 172.50699 82.031326 172.20703 81.779297 C 171.90706 81.522052 171.4547 81.392578 170.84961 81.392578 L 169.0957 81.392578 z "
       transform="scale(0.26458333)" />
  </g>
</svg>
