<?xml version="1.0" encoding="UTF-8" standalone="no"?>
<svg
   xmlns:dc="http://purl.org/dc/elements/1.1/"
   xmlns:cc="http://creativecommons.org/ns#"
   xmlns:rdf="http://www.w3.org/1999/02/22-rdf-syntax-ns#"
   xmlns:svg="http://www.w3.org/2000/svg"
   xmlns="http://www.w3.org/2000/svg"
   xmlns:sodipodi="http://sodipodi.sourceforge.net/DTD/sodipodi-0.dtd"
   xmlns:inkscape="http://www.inkscape.org/namespaces/inkscape"
   viewBox="0 0 50 50"
   enable-background="new 0 0 50 50"
   version="1.1"
   id="svg903"
   sodipodi:docname="edit-form.svg"
   inkscape:version="1.0.1 (c497b03c, 2020-09-10)">
  <metadata
     id="metadata909">
    <rdf:RDF>
      <cc:Work
         rdf:about="">
        <dc:format>image/svg+xml</dc:format>
        <dc:type
           rdf:resource="http://purl.org/dc/dcmitype/StillImage" />
        <dc:title></dc:title>
      </cc:Work>
    </rdf:RDF>
  </metadata>
  <defs
     id="defs907" />
  <sodipodi:namedview
     pagecolor="#ffffff"
     bordercolor="#666666"
     borderopacity="1"
     objecttolerance="10"
     gridtolerance="10"
     guidetolerance="10"
     inkscape:pageopacity="0"
     inkscape:pageshadow="2"
     inkscape:window-width="1920"
     inkscape:window-height="978"
     id="namedview905"
     showgrid="false"
     inkscape:zoom="16.24"
     inkscape:cx="25"
     inkscape:cy="25"
     inkscape:window-x="1680"
     inkscape:window-y="23"
     inkscape:window-maximized="1"
     inkscape:current-layer="svg903" />
  <path
     d="M 14.536237,44.079903 C 13.496529,39.74779 10.030838,36.282099 5.6987251,35.242392 l 0.8664226,-3.292406 c 5.5451053,1.386276 9.8772193,5.71839 11.2634953,11.263495 z"
     id="path895"
     style="stroke-width:1.73285;fill:#ffffff" />
  <path
     d="M 34.460492,12.86616 36.910736,15.316403 14.366418,37.87805 11.916174,35.431272 Z"
     id="path897"
     style="stroke-width:1.73285;fill:#ffffff" />
  <path
     d="M 2.752888,47.02574 7.7781395,45.812749 C 7.2582859,43.906619 5.8720096,42.520343 3.9658797,42.000489 Z"
     id="path899"
     style="stroke-width:1.73285;fill:#ffffff" />
  <g
     id="g913"
     transform="matrix(1.7328453,0,0,1.7328453,-16.308411,-20.555228)"
     style="fill:#ffffff">
    <path
       d="M 9.6,40.4 12.1,30.5 27,15.6 34.4,23 19.5,37.9 Z m 4.3,-8.9 -1.5,6.1 6.1,-1.5 L 31.6,23 27,18.4 Z"
       id="path893"
       style="fill:#ffffff" />
    <path
       d="m 35,22.4 -7.4,-7.4 3,-3 0.5,0.1 c 3.6,0.5 6.4,3.3 6.9,6.9 l 0.1,0.5 z M 30.4,15 35,19.6 35.9,18.7 c -0.5,-2.3 -2.3,-4.1 -4.6,-4.6 z"
       id="path901"
       style="fill:#ffffff" />
  </g>
</svg>
